<?xml version="1.0" standalone="no"?>
<!DOCTYPE svg PUBLIC "-//W3C//DTD SVG 20010904//EN"
 "http://www.w3.org/TR/2001/REC-SVG-20010904/DTD/svg10.dtd">
<svg version="1.0" xmlns="http://www.w3.org/2000/svg"
 width="1024.000000pt" height="1024.000000pt" viewBox="0 0 1024.000000 1024.000000"
 preserveAspectRatio="xMidYMid meet">

<g transform="translate(0.000000,1024.000000) scale(0.100000,-0.100000)"
fill="#000000" stroke="none">
<path d="M3194 7016 c-18 -8 -34 -24 -37 -37 -4 -13 -7 -912 -7 -1997 0 -1481
3 -1979 12 -1995 6 -12 18 -27 27 -34 12 -10 444 -12 1944 -13 1895 0 1927 0
1946 19 11 11 23 35 26 53 3 18 4 920 3 2005 -3 1878 -4 1973 -21 1990 -17 17
-110 18 -1940 20 -1599 2 -1927 0 -1953 -11z m1766 -834 l0 -489 -107 -6 c-58
-4 -173 -7 -255 -7 l-148 0 0 -675 0 -675 675 0 675 0 0 240 c0 226 1 240 19
250 39 20 257 3 272 -22 7 -11 14 -784 7 -790 -2 -1 -257 -5 -568 -8 l-565 -5
-3 -337 -2 -337 -33 -6 c-17 -3 -342 -4 -722 -3 l-690 3 -2 740 c-2 458 1 746
7 755 13 21 268 20 281 -1 5 -8 9 -271 9 -585 0 -471 2 -574 14 -583 9 -8 129
-10 422 -9 l409 3 3 182 2 183 -252 2 -253 3 -3 997 -2 998 252 2 253 3 3 178
2 177 -408 0 c-311 0 -412 -3 -425 -12 -16 -12 -17 -61 -19 -578 l-3 -565
-145 0 -145 0 -3 733 -2 732 725 0 725 0 0 -488z m1787 -1188 l3 -1672 -32 -6
c-17 -3 -339 -6 -715 -6 l-684 0 -9 26 c-11 28 -13 235 -4 272 l6 22 553 0
c502 0 554 2 566 17 12 13 14 235 15 1347 1 788 -2 1338 -8 1349 -8 16 -36 17
-421 15 l-412 -3 0 -175 0 -175 248 -3 247 -2 -2 -398 -3 -397 -147 -3 -148
-3 0 245 0 245 -192 -6 c-106 -3 -219 -3 -250 1 l-58 7 0 490 0 489 723 -2
722 -3 2 -1671z m-1294 206 c-1 -74 -2 -218 -2 -320 l-1 -185 -323 0 -322 0
-3 323 -2 322 327 -2 328 -3 -2 -135z"/>
</g>
</svg>
